/* XPM */
static char *b5456afa2931416a84c19c0f57940c32ybBT6zK5LfILFzGY[] = {
/* columns rows colors chars-per-pixel */
"50 50 158 2 ",
"   c None",
".  c #000001",
"X  c #00070B",
"o  c #090B0C",
"O  c #110000",
"+  c #1D0000",
"@  c #000D10",
"#  c #001F1F",
"$  c #0C1313",
"%  c #141515",
"&  c #131719",
"*  c #161A1A",
"=  c #1A1A1A",
"-  c #220000",
";  c #2D0000",
":  c #27000B",
">  c #360000",
",  c #390000",
"<  c #251B18",
"1  c #341510",
"2  c #20201F",
"3  c #171E20",
"4  c #1C1F20",
"5  c #271F21",
"6  c #1D2425",
"7  c #1A2A2C",
"8  c #1B2F31",
"9  c #232424",
"0  c #2C2121",
"q  c #252A2C",
"w  c #2A2C2C",
"e  c #372324",
"r  c #3E2D2E",
"t  c #282D31",
"y  c #253335",
"u  c #2C3234",
"i  c #2F3639",
"p  c #343534",
"a  c #323638",
"s  c #34393B",
"d  c #3B3B3C",
"f  c #4B0000",
"g  c #560000",
"h  c #5D0000",
"j  c #571D0F",
"k  c #5C151B",
"l  c #630000",
"z  c #700000",
"x  c #7B0000",
"c  c #5F2B1F",
"v  c #6B2108",
"b  c #70260D",
"n  c #452124",
"m  c #5F2127",
"M  c #523235",
"N  c #693136",
"B  c #363E42",
"V  c #3B3F41",
"C  c #453D41",
"Z  c #354446",
"A  c #3B4345",
"S  c #354749",
"D  c #344A4B",
"F  c #3E484A",
"G  c #3B5154",
"H  c #424545",
"J  c #484443",
"K  c #454748",
"L  c #44494A",
"P  c #4B4C4C",
"I  c #4F504D",
"U  c #51514F",
"Y  c #5D4D51",
"T  c #4C5152",
"R  c #4D5758",
"E  c #535454",
"W  c #595657",
"Q  c #545758",
"!  c #55595A",
"~  c #5B5C5C",
"^  c #674246",
"/  c #6A484A",
"(  c #6E524B",
")  c #6C4B51",
"_  c #6B5356",
"`  c #6A5854",
"'  c #615C5C",
"]  c #695859",
"[  c #715859",
"{  c #60605E",
"}  c #6D605F",
"|  c #575D60",
" . c #5B5E61",
".. c #655F61",
"X. c #7E5F61",
"o. c #576265",
"O. c #5C6264",
"+. c #54676A",
"@. c #5E6669",
"#. c #5D6A6A",
"$. c #646565",
"%. c #686866",
"&. c #646769",
"*. c #65696A",
"=. c #6B6C6C",
"-. c #76706F",
";. c #656E71",
":. c #6B6F71",
">. c #677073",
",. c #6D7172",
"<. c #6C757A",
"1. c #6F787D",
"2. c #64757A",
"3. c #737474",
"4. c #787574",
"5. c #747778",
"6. c #767C7C",
"7. c #7B7B7B",
"8. c #820000",
"9. c #8C0000",
"0. c #900000",
"q. c #85281E",
"w. c #831F29",
"e. c #931427",
"r. c #852B22",
"t. c #842933",
"y. c #FF0012",
"u. c #89464C",
"i. c #894A50",
"p. c #836F6F",
"a. c #866A64",
"s. c #81706E",
"d. c #867975",
"f. c #7F807C",
"g. c #6C7C80",
"h. c #777E80",
"j. c #7C7E80",
"k. c #638083",
"l. c #6F8586",
"z. c #748384",
"x. c #7C8182",
"c. c #7C8889",
"v. c #868585",
"b. c #848484",
"n. c #898887",
"m. c #878989",
"M. c #888888",
"N. c gray54",
"B. c #8B8C8D",
"V. c #8D8D8D",
"C. c #8E8F8F",
"Z. c #8E8F8E",
"A. c #8C8C8C",
"S. c #8B8586",
"D. c #908F8F",
"F. c #8E9191",
"G. c #909192",
"H. c #939493",
/* pixels */
"                                                                                                    ",
"                                                                                                    ",
"                                                                                                    ",
"                                                                                                    ",
"                                                                                                    ",
"                                                                                                    ",
"                                                                                                    ",
"                                                                                                    ",
"                                                                                                    ",
"                                        H                                                           ",
"                                        *.      9                                                   ",
"                                        3.      ~                                                   ",
"                                T   = = j.j.  s j.                                                  ",
"                                O.x.= w ,.3.9 K $.o o                                               ",
"                              . H j.H K P  .4.-.~ W d E                                             ",
"                            9 7.i w A Q x.d.c 1 d P E E .                                           ",
"                          A K A.3.6 T x.d.g A A 6.j.U I P s                                         ",
"                      $.d T ..v.B.a O.M.l d 6.L O.V *.T $.a !                                       ",
"                      L L =.$.4.F.I 6.d.f o.5.A ,.v.M.P $.$.d                                       ",
"                    P u P =.5.5.D.I 6.a., G s S B.7.M.$.B $.d A                                     ",
"                    u u ~ 3.7.h.D.E 6.d.; 7  .B.H. .B.H.*.$.d u 6                                   ",
"                  ;.T u  .7.j.d.F.E =.B.< y v.v.F.H.F.Z.v.=.E i 1.O.                                ",
"                  ;.z.| y =.3.x.F.W =.d.*.& v.` h r.z ( Q E :.<.<.                                  ",
"                  . ] l.2.| $.B.A.W 6.j.*.% *.F.s.9.q.F.~ E ,.Y +                                   ",
"                  > 9.t.>.k.c.H.b.! 3.7.m.7.T h.F.( v.m.j.x.~ x [ f.                                ",
"                +.C 8.9.9.w.) *.Z E 3.3.7.M.M.3.5.x.x.7.7.7.~ m F.O.              U                 ",
"                T g.v./ z 9.9.> 7 E 3.~ 6.j.v.M.j.*.6.b.5...$.Z.b.a $.          f.Z.n.              ",
"                t i x.F.B.^ x 0 D L -.=.7.4.7.v.v.b.v.3.5.%.b.b.& v.4.      d A.D.f.P e e           ",
"                <.B X 6 x.G.N : Z S =.7.5.O.4.,.3.,.:.=.:.-.=.6 5.M.! P     U b.M . s X.n           ",
"              9 I ;.h.j.3 v.b.+ Z A A =.7.5.7.3.3.3.,.3.5.E q K A.=.'         $ # ,.,.~ 0           ",
"              $.w 9 Q A.Z.~ $.O Z Z A A O.3.<.| M F ,.7.Q ! t M.b.=.{       . r ,.{ 9 s E           ",
"              X 9 Q F E n.Z.m.] f d A A d B A c v v w a t  .&.&.*.7.b.    P ' k p 2 p p E           ",
"                O.A 6 P =.:.v.m.A q d d a B = J S.p.6 P w a 3 9 T =.K @ $.5.E   = q p % p J         ",
"                T 5.&.R 3.v.V.*.q 9 s p 6 d 6 G i.i.7 q F | @.;.T ~ 3.=.%.      C 2 = ~ b.N.        ",
"                A T &.O.3.m.&.q u u t u K A L x.;.z.:.E E ;.| Z a ! E o   . P P q % f.H.H.F.U       ",
"                q T *.5.5.4.V &.@.o.| ! ~ 7.Z.x.g _ F.m.=.. a ~ ~ ! =.    . = . 2 n.D.A.%..         ",
"                  . & K 7.~ . * ! O.| O.@.x.b.9.y.9.] x.T + { b.b.=.d     d U %.Z.H.A..             ",
"                      X V .   . A  .! s p . - 8.y.e.M #   r ~ 3.P .     H Z.H.H.H.n.=               ",
"                              * L O.M.5.P   8 D W x.#.y     . .         -.D.b.{ U .                 ",
"                              4 E L F H 9   y R D Z A *                 P K                         ",
"                                q 9 9 K q     6 * w p                                               ",
"                                                                                                    ",
"                                                                                                    ",
"                                                                                                    ",
"                                                                                                    ",
"                                                                                                    ",
"                                                                                                    ",
"                                                                                                    ",
"                                                                                                    ",
"                                                                                                    "
};
