/* XPM */
static char *_646507656603[] = {
/* columns rows colors chars-per-pixel */
"50 50 214 2 ",
"   c #000000",
".  c #000D00",
"X  c #000009",
"o  c #001D00",
"O  c #091109",
"+  c #000011",
"@  c #00001C",
"#  c #00131C",
"$  c #002100",
"%  c #002B00",
"&  c #003401",
"*  c #003A00",
"=  c #00381B",
"-  c #2A2B1E",
";  c #302E1F",
":  c #000021",
">  c #000030",
",  c #00003A",
"<  c #2E2C20",
"1  c #373523",
"2  c #004500",
"3  c #004D00",
"4  c #004A0C",
"5  c #005500",
"6  c #005D00",
"7  c #005909",
"8  c #004919",
"9  c #005716",
"0  c #006400",
"q  c #006B00",
"w  c #00630A",
"e  c #006D0E",
"r  c #007300",
"t  c #007B00",
"y  c #00700A",
"u  c #006317",
"i  c #006C13",
"p  c #006A1B",
"a  c #007317",
"s  c #005724",
"d  c #006821",
"f  c #007622",
"g  c #4E4A2A",
"h  c #7E7032",
"j  c #000044",
"k  c #00004B",
"l  c #000052",
"z  c #000059",
"x  c #130055",
"c  c #220053",
"v  c #38005D",
"b  c #000067",
"n  c #000073",
"m  c #2D006C",
"M  c #49005B",
"N  c #51006F",
"B  c #652E6B",
"V  c #545664",
"C  c #6F526B",
"Z  c #66727E",
"A  c #917661",
"S  c #008500",
"D  c #008B00",
"F  c #00870E",
"G  c #1D8B05",
"H  c #009200",
"J  c #009B00",
"K  c #03920B",
"L  c #179500",
"P  c #008B14",
"I  c #008A1A",
"U  c #009811",
"Y  c #268903",
"T  c #2A9200",
"R  c #289800",
"E  c #379603",
"W  c #00A300",
"Q  c #00AB00",
"!  c #19A400",
"~  c #01B300",
"^  c #00B900",
"/  c #26A500",
"(  c #37A600",
")  c #39A300",
"_  c #24B900",
"`  c #37B700",
"'  c #0D8433",
"]  c #2EAE27",
"[  c #4A9E00",
"{  c #549600",
"}  c #499211",
"|  c #609A00",
" . c #43A500",
".. c #4FA400",
"X. c #46AB00",
"o. c #4CAD00",
"O. c #54AD00",
"+. c #5DAD00",
"@. c #4DB700",
"#. c #55B300",
"$. c #5BB600",
"%. c #53A815",
"&. c #61AB00",
"*. c #65A800",
"=. c #76AE00",
"-. c #62B401",
";. c #6CB300",
":. c #61BA00",
">. c #6DBA00",
",. c #76B500",
"<. c #42923D",
"1. c #51A13E",
"2. c #7BB03A",
"3. c #17C000",
"4. c #39C200",
"5. c #4BC200",
"6. c #5ACB00",
"7. c #66C900",
"8. c #78C700",
"9. c #7CCC00",
"0. c #69D500",
"q. c #78D600",
"w. c #73D617",
"e. c #75D720",
"r. c #008A51",
"t. c #389C46",
"y. c #00A24F",
"u. c #2AA74D",
"i. c #6D9E4A",
"p. c #73A847",
"a. c #6DA759",
"s. c #7A8A6F",
"d. c #7CB165",
"f. c #8FB400",
"g. c #82BC00",
"h. c #8DBB00",
"j. c #8AC200",
"k. c #88C600",
"l. c #92C400",
"z. c #97C600",
"x. c #8BD400",
"c. c #88D900",
"v. c #9AD900",
"b. c #90C51D",
"n. c #A4CB00",
"m. c #ABCD00",
"M. c #A8D900",
"N. c #B5D007",
"B. c #95E100",
"V. c #A4E400",
"C. c #A7EB07",
"Z. c #B8E700",
"A. c #B3EA00",
"S. c #A1E615",
"D. c #94DD21",
"F. c #AFCD34",
"G. c #87E22C",
"H. c #B1EE37",
"J. c #CBD500",
"K. c #C7E900",
"L. c #DAE500",
"P. c #C8F500",
"I. c #D5F100",
"U. c #E4E800",
"Y. c #E6F200",
"T. c #FEFF00",
"R. c #FFFF0B",
"E. c #CFF925",
"W. c #F3F835",
"Q. c #F9FF3B",
"!. c #92A25C",
"~. c #8EB270",
"^. c #AFAA7C",
"/. c #95D14F",
"(. c #ACD152",
"). c #99ED51",
"_. c #ABE054",
"`. c #97C974",
"'. c #ACD563",
"]. c #B5DE6C",
"[. c #A8D17A",
"{. c #B9E377",
"}. c #CBDE56",
"|. c #C1F448",
" X c #F6FF5A",
".X c #C5D971",
"XX c #C3E772",
"oX c #F8FF69",
"OX c #FFFF6A",
"+X c #804285",
"@X c #B891A6",
"#X c #CEB283",
"$X c #9BCB86",
"%X c #BADE86",
"&X c #B8E18E",
"*X c #C9CF89",
"=X c #F0D19B",
"-X c #C4E987",
";X c #DCFF8C",
":X c #C7E798",
">X c #D9F998",
",X c #F5E486",
"<X c #FFFF88",
"1X c #D3DBA7",
"2X c #CBE8A4",
"3X c #D4EBBB",
"4X c #F6FFA5",
"5X c #E6FDB5",
"6X c #FFFFB8",
"7X c #DBEDC5",
"8X c #FFFFD6",
"9X c #FFFFEC",
"0X c #FFFFF2",
"qX c #FFFFFF",
/* pixels */
"                                                                                                    ",
"                                                                                                    ",
"                          O                                                                         ",
"                X                                                                                   ",
"                                                      X                                             ",
"                X                           F.q.C.c.G./.x                           X               ",
"        . X                             i.0.` K.g.Q ^ q.6.`.                              O         ",
"                                      p.W J qXqXqXT $X,.v.4.B.M                                     ",
"                                    C ^ qXqX7XK       6 8X_ W C.v                                   ",
"              O                   , 0.~ H 0 6 ,.q   G & 3   * J |.X                                 ",
"            . X           X       }.` _.6 5 >.q   J.T.W.y..   2 ~ !.        < h           O         ",
"                          h     ^.Z././ 2 H q r 5 q T.T.T   f.] u.0.                                ",
"                                Q.8.D  .q O.d F p # e U.U.  T.! 7XH x                               ",
"                                7.Q t 2 [ t 1.a s P i t W * qXL.  5 H..                             ",
"                X             @ Q 9.0 * -.0 &.h.s I #.r q * qXT.o . 7.c                             ",
"                              1X~ XXqX( q S l.f s p L R r 6 &X9X2 q 6.C                             ",
"            X                 P.n.qXqX5 6  .D ( d %.i L S   H qXq   x.~.                            ",
"              X             + v.x.qXz.  0 ..S 9 d +.Y r  .q   qX:.2 @.S.                            ",
"                            l A.t >.&   J t 0 E e p q &.o.5   0XXXD 0 A.l               O O         ",
"          .                 V ^ r q   r k.~.2 t ( D &   X.D   3XqXq 6 5..XX             - ;         ",
"                            ,Xx.t     h.4XqXS W r  .;.q [.qX  ~.qXo r J OX                          ",
"                            <Xx.0 3 6 l.>XqXt 6 0 2 S J F.qX_.  >X6 0 J W.                          ",
"                            OX~ r 3XE D 8.qX6 q q E +.r  .qX9X  % D 6 r w.                          ",
"                          @ S.` t F.0 6 2 7X  2 ..S q 3 &.qXqX  % o.6 W 6.j                         ",
"              ; g         k c./ 0 J.(.5 5 0   q +.| r 2 g.f.qXr $ ;.5 J 5XB           X             ",
"                          z V.0 q n.{   q * q 2.;.a T t D . /.qXt S 6 D c.C                         ",
"                          j I.t 0 +.N.qX&.& ( O.j.b.G t r     qX) q 6 D B.v                         ",
"                          j V.D q W T.qX:Xq O.$.u ,...t 5 5 7XqXn.'.0 H D.                          ",
"                          M ;XW r t J.2.t 0 R R a P ,.t 6 p.qXN.N.-.6 H w.@                         ",
"            X             M 4XH S $ 2 & t S D E [ I +.) 5 t :.w D H 4 F e.:                         ",
"                          , 6XW D D D 6 '.S 5  .T S d n.3 t S S L *.9 p q.k                         ",
"                            oX8XS 5 S l.].].' H & ;.' Y =.6 [   =.%.[ P c.l           .             ",
"                              >Xq 5 q ..m.6XqXa.3 0 &.G G <.7 t n.E t / E.@                         ",
"            X .               }.0 :Xr 2Xo.[.k.`.o 6 w P u y E n.} %Xr 9.P.l                         ",
"            X                 A :.t 2 r t 6 3 L.r 3 q q 0 6 .X+.0 U ! M.A.m                         ",
"                              B 3.5 ..q d.2   n.Y.S 0 0 0 r >.F r J o.Z.).X             X           ",
"                              j q.J :.q 0 5 r r.OXn.H 2 a.{.( %.H J Y.T.n                           ",
"            .                    X5.` &.f 6 $X2 l.4X8XO.&. .-Xt.$ ~ T.@X                            ",
"                                k P.~ #.+.S % S 5 D :.X./ D 2 . t Z.=X                              ",
"                X                 *Xv.7.#.o.w 5 r 5 * t D 8 & 0 4.T.>           g                   ",
"                                    *XE.x.$.o.9 i i e a 9 i J 9.T.#X            1                   ",
"          X                             *Xq.:. .9 = 8 = 9 W Z.R.+X                                  ",
"                    .                     $XN.K.M.W J J W v.B.b                                     ",
"                                            N H.x.~ 9.M.T. Xk                                       ",
"            O                                   s.q.T.Q.<Xk                   O     . X             ",
"                  .         X                     l Z @                                             ",
"                              X                                                                     ",
"                                                                                                    ",
"                                                                                                    ",
"                                                                                                    "
};
