/* XPM */
static char *f6c680e9f1a14757d42c7aaa71c1ee08HArVEesbNMgWuoOw[] = {
/* columns rows colors chars-per-pixel */
"50 50 201 2 ",
"   c None",
".  c #010101",
"X  c #0C0200",
"o  c #0E0A00",
"O  c #02040B",
"+  c #020B0D",
"@  c #0C0C0C",
"#  c #050905",
"$  c #110E02",
"%  c #140F0C",
"&  c #15120D",
"*  c #121005",
"=  c #0E1113",
"-  c #001818",
";  c #131313",
":  c #191612",
">  c #141917",
",  c #1C1916",
"<  c #161B1A",
"1  c #1D1C1B",
"2  c #16171C",
"3  c #090D10",
"4  c #221F1E",
"5  c #1B201F",
"6  c #22201E",
"7  c #1E1E21",
"8  c #1D232A",
"9  c #242323",
"0  c #282625",
"q  c #2B2926",
"w  c #272928",
"e  c #2B2C2B",
"r  c #24262B",
"t  c #3E2E25",
"y  c #312F2D",
"u  c #34312D",
"i  c #262B33",
"p  c #2A2E35",
"a  c #2C2F3B",
"s  c #2D3134",
"d  c #333433",
"f  c #3A3734",
"g  c #353937",
"h  c #32353C",
"j  c #363C3A",
"k  c #3B3D3C",
"l  c #3E3A35",
"z  c #2C312F",
"x  c #433126",
"c  c #4C3629",
"v  c #4E3E36",
"b  c #3C423F",
"n  c #46403E",
"m  c #343D43",
"M  c #232C47",
"N  c #3F4442",
"B  c #3F4843",
"V  c #394B4E",
"C  c #365451",
"Z  c #3F4E5D",
"A  c #32625B",
"S  c #2A766B",
"D  c #434544",
"F  c #424B46",
"G  c #454D4A",
"H  c #4E494C",
"J  c #47504D",
"K  c #4A514E",
"L  c #4D5551",
"P  c #475855",
"I  c #535554",
"U  c #525A56",
"Y  c #535E58",
"T  c #5A5A5A",
"R  c #53544E",
"E  c #7E5355",
"W  c #4C635D",
"Q  c #56635B",
"!  c #59665E",
"~  c #58685F",
"^  c #766B5D",
"/  c #5B5C65",
"(  c #4F5860",
")  c #4C6962",
"_  c #5B6C63",
"`  c #576A65",
"'  c #5E7166",
"]  c #5F7568",
"[  c #54766D",
"{  c #5A7F7A",
"}  c #597975",
"|  c #45796F",
" . c #63686A",
".. c #61766A",
"X. c #64796D",
"o. c #667D72",
"O. c #697E75",
"+. c #6C7F79",
"@. c #637A78",
"#. c #696F72",
"$. c #AD1317",
"%. c #AD2E2B",
"&. c #B12D28",
"*. c #AA3E3C",
"=. c #A83937",
"-. c #AE312D",
";. c #C70200",
":. c #CB0000",
">. c #CB050B",
",. c #D10000",
"<. c #FF0000",
"1. c #A2433E",
"2. c #8A6827",
"3. c #9D4B47",
"4. c #855A5A",
"5. c #9E5050",
"6. c #A34D4E",
"7. c #8C7A7D",
"8. c #8C7677",
"9. c #8A6969",
"0. c #3E827F",
"q. c #2C807D",
"w. c #48827F",
"e. c #6E807C",
"r. c #65807D",
"t. c #74817E",
"y. c #7A827F",
"u. c #898A3F",
"i. c #959047",
"p. c #A2A458",
"a. c #A2A462",
"s. c #BEBF75",
"d. c #927C82",
"f. c #038987",
"g. c #1A8684",
"h. c #238684",
"j. c #2E8784",
"k. c #3C8582",
"l. c #338685",
"z. c #4B8583",
"x. c #5B8583",
"c. c #49918C",
"v. c #698483",
"b. c #7D8481",
"n. c #738584",
"m. c #828584",
"M. c #8B8B8B",
"N. c #868987",
"B. c #968186",
"V. c #978B8B",
"C. c #818296",
"Z. c #888A9B",
"A. c #8B9193",
"S. c #939494",
"D. c #9C9C9C",
"F. c #979897",
"G. c #8E918F",
"H. c #A39889",
"J. c #A19688",
"K. c #A28C8A",
"L. c #9EA09E",
"P. c #A9A296",
"I. c #AAA598",
"U. c #ACA99C",
"Y. c #ADA792",
"T. c #9F9FA0",
"R. c #A09FA0",
"E. c #A4A4A4",
"W. c #ACACAC",
"Q. c #A1A8A8",
"!. c #B1ACA7",
"~. c #BCB5A8",
"^. c #BFB8AB",
"/. c #B3B3B3",
"(. c #BABABA",
"). c #B8B8B8",
"_. c #AFB0AF",
"`. c #D09799",
"'. c #CAA8A9",
"]. c #C2BAB2",
"[. c #C8BDB5",
"{. c #FFA9AA",
"}. c #FFB5B6",
"|. c #C7C989",
" X c #C6C789",
".X c #CDC1BB",
"XX c #D3C0B8",
"oX c #FFCBB5",
"OX c #FFC2B9",
"+X c #FFCBBD",
"@X c #FFD5BF",
"#X c #FFFFBD",
"$X c #C2C2C2",
"%X c #C9C9C9",
"&X c #FFCEC0",
"*X c #FFC7C8",
"=X c #FFD2C0",
"-X c #FFFFC3",
";X c #FFFFCA",
":X c #FFFFD8",
">X c white",
/* pixels */
"                    6 4 , , 4 , , $ . . . % : : : 4 , , , ; & & * $ $ o o X X o 4                   ",
"                    0 6 6 6 6 6 6 ; . . X : 4 4 , , , 4 , : : : : & * * o o X $ 9                   ",
"                  W.d u q 9 9 6 0 4 H $X$X).  )./.).).  (.).  E.u u d v l l f n                     ",
"                  E.S.  E.q 0 9 9 0 0 e w 0             D.0 y y 0 e y f f f f R                     ",
"                  W.E.    E.E.Q.E.E.E.E.D.T.>X  >X>X    /.L.E.E.E.E.Q.E.W.E.l M.                    ",
"                  W.S.  ).$X$X(.(.(.).).).)./.W.W.W.W./._.).).).).).(.$X$X$Xf m.                    ",
"                  F.< 2 + . . . . . . . . . . . . . . . . . . . . . . . . . . . T                   ",
"                  D.1 : 0 c c t . . O . . . t t t x x c , . . O . . + x x x + ; m.                  ",
"                    E.b..X-X&X;X      8 . , ;X>X>X>X>X>XI.. . M       @X=X=X                        ",
"                          OXOXOX&X@X#X.X].I.I.I.I.I.I.I.I.].].OX-X+X+XOXOXOX                        ",
"                          OXOXOXXXOXOX=X-X4 . . . . . . . +X-X+X}.OXOXOXOXOX                        ",
"                          OXOXOXXX[.XXOX&X!.J.H.H.H.H.J.P.+X+XOXOXOXOXOXXXXX                        ",
"                          -X=X@X+X+X+X+X@X>X:X>X>X;X;X;X-X&X*X+X+X+X+X+X@X+X                        ",
"W.. n 4.B.B.B.d.d.d. .Z !.[.[.].].].^.oXoXoX].].[.[.].^.oXoXoX^.(.^.].].].].^ 8 4.9.a.B.B.7.E b . W.",
"D.5 U Q ! ! ! ! ` ! U s 1 2 2 r a r i.|.|.Y.. . . . . . s.|. Xu.8 i i p s m Z Z ) ) ( ( A W P J < F.",
"D.< Y ~ _ ] ] ..@.n.b.r + + + h h a h a.p.a.i i s s i e p.p.p.R V Z P V C A h.h.g.g.g.f.q.q.A C > F.",
"Y.> Q ~ Q r.~ r.e.t.y.w # + + * O . a Z.Z.Z./ ` #.#.Y m d.n.C.m N V ` w.0...6.5.5.3.3.1.1.*.V.c.8 E.",
"L.* Q ~ Q Q r.r.r.t.y.w & > & # . . s /._.W./ I H p r w (.>X%Xm . . [ n.l.-.,.:.:.:.:.,.<.<.{.      ",
"L.> Q ~ r.u.u.) ] e.t.y.y.b.~ # . . . . . & / I D y w q w r i O . . + - - $.:.:.:.:.:.`.}.{.        ",
"L.> R Q w.) r.~ ' r.r.t.y.y.e.q w e @ . . @ , 1 7 p p e 0 9 7 . . . + - - $.:.;.:.:.:.'.      W.  (.",
"L.> W ' r.~ r.r.' e.r.e.e.e.e.e.m.m.; # # # @ = % 9 p d (.>X%Xw . . [ v.f.%.:.;.;.:.:.'.    Q.. . I ",
"L.> Q ' ~ r.r.~ r.' e.' r.e.^ r.O.e...e.m.d . @ @ ; @ # k E.E.I b F { x.f.-.:.:.;.;.;.'.    Q.. . H ",
"L.> Y ~ ) ' r.~ ~ r.r.~ ' e...] ..' X.F.F.m.@ = ; @ @ # @ g j L m.m.n.x.f.&.,.:.:.:.:.'.  *X/.8 . S.",
"L.> Q ~ u.Q r.r.r.) u.e.r.r...' ~ ~ F.$X%X).n j d ; & ; @ . . = m.m.m.z.h.&.<.,.:.:.:.:.>.>.{.      ",
"L.> Q ' r.~ e.r.X.X.r.e.X.r.e.' _ _ o.S.S.G.I K G 4 1 1 = . . @ : 4 7 ) j.8.3.*.1.1.=.=.-.-.K.c.# Q.",
"L.> Q ' r.e.e.r.O.O.e.X.e.X.X.' _ Q X.N.N.N.Q Y Y w 0 0 r # . . # @ . z z.j.g.h.q.g.q.q.q.q.A C > D.",
"L.5 ~ ' r.e.u.[ O.O.O.X.e.y.y.t.+.T D.%X%X).Y J m q 9 0 /.(.(.M.. # O # + 3 = k.l.0.q.0.0.0.| W > D.",
"L.> ~ r.' r.r.] O.O.O.Q b b f b k b b M.N.F.F.S.S.M.M.S.D.S.F.f . . . . . . = n.e.r.r.r.r.w.[ ` > D.",
"D.; Y ! ~ ' ' _ ` ! ` 8 . . . . . . . . . S.>X>X>X>X>X>XS.. . . . . . . . . O [ [ ] ] ` _ _ ` U = L.",
"T . . . # . . . . . . . . p y d d d D D.D.W.E.E.E.D.F.E.W.D.R.b d f d d i 2 . . . . . . . . . . . n ",
"I . . . . . . . . i.~.~.U.d h j k k I D.L.S.e w 0 0 9 r F.R.E.T k k k k s I.~.~.2.. . . . . . . . b ",
"G.. 1 7 6 8 9 4 2 I.#X#X].e k j f d d e w e y y p e e e e w e y d h k j p U.-X#XY.= 1 1 5 9 9 1 . N.",
"                        /.P L G b b j j g g d g j j d j b d g b b b J L b A.                        ",
"                        /.Y U L K J J K K F F F B F F F J K K F F K U Q B A.                        ",
"                        /.Y Y Y Q Q ~ ~ ~ Y L K K K L U Q _ _ ~ ~ Q ~ Q B S.                        ",
"                        /.L U Y ' ] ] ' _ ~ Q Q Q Q Q Q ~ ' ] ] ' _ Q U B F.                        ",
"                        _.N G L _ ' ~ U L L L L K L P L L U Q _ ] _ U J b S.                        ",
"                        _.j N K Q ' Q F B B B F F F F F B n F Q ' ~ K F g S.                        ",
"                        W.g j J ~ _ U B b b n B F F n B b b J Q _ ~ J b d S.                        ",
"                        _.j N G Q _ U F B B D G F F F F B B J Q ~ Q J B d S.                        ",
"                        /.k N F I I L G G F G G G G G G F F K I U I G D d F.                        ",
"                        _.d d N D D D N N D b b m N v b D D D D D D D m d S.                        ",
"                        /.1 ; : : ; ; ; ; ; ; ; ; % ; ; ; ; ; ; ; ; % % = S.                        ",
"                        _.@ . O @ @ @ @ @ @ @ @ @ O # @ @ @ @ @ @ # # . # M.                        ",
"                        W.@ . . . # . # O X # # . . . # O X O O . . . . . S.                        ",
"                        /.@ . . . . . . # # # . . . . . # # # X . . . . . M.                        ",
"                        _.# . . . . . . . # . . . . . . # # # . . . . . . M.                        ",
"                        W.. . . . . . . . . . . . . . . . . . . . . . . . M.                        ",
"                        N.. . . . . . . . . . . . . . . . . . . . . . . . 1                         ",
"                        9 . . . . . . . . . . . . . . . . . . . . . . . . :                         "
};
