/* XPM */
static char *_646507693211[] = {
/* columns rows colors chars-per-pixel */
"50 50 126 2 ",
"   c #020305",
".  c #01010B",
"X  c #000113",
"o  c #040912",
"O  c #00001B",
"+  c #000D19",
"@  c #001317",
"#  c #08161B",
"$  c #08181C",
"%  c #151619",
"&  c #181C1C",
"*  c #201F1D",
"=  c #24211F",
"-  c #2B241E",
";  c #000025",
":  c #000F22",
">  c #011B26",
",  c #001629",
"<  c #001D2A",
"1  c #212327",
"2  c #24272A",
"3  c #312720",
"4  c #342820",
"5  c #3B2D22",
"6  c #332D2D",
"7  c #3B322C",
"8  c #432E1E",
"9  c #4A2F1D",
"0  c #4C311D",
"q  c #53371F",
"w  c #58371C",
"e  c #57381C",
"r  c #5A3A1C",
"t  c #633507",
"y  c #643609",
"u  c #66380B",
"i  c #6C3C0D",
"p  c #703F0F",
"a  c #6C3E12",
"s  c #643E1B",
"d  c #703F11",
"f  c #463121",
"g  c #4B3320",
"h  c #44352E",
"j  c #533D2F",
"k  c #473930",
"l  c #4C3A30",
"z  c #493D38",
"x  c #794606",
"c  c #73410F",
"v  c #7C490B",
"b  c #6F4213",
"n  c #6B421B",
"m  c #744312",
"M  c #794613",
"N  c #7C4A16",
"B  c #724418",
"V  c #7B4A1A",
"C  c #584132",
"Z  c #6B4A2E",
"A  c #724D28",
"S  c #614531",
"D  c #6B4C32",
"F  c #624B3B",
"G  c #745234",
"H  c #7A5534",
"J  c #76563B",
"K  c #283C48",
"L  c #626164",
"P  c #757376",
"I  c #7C797B",
"U  c #814D16",
"Y  c #824F19",
"T  c #865213",
"R  c #8A5416",
"E  c #86531A",
"W  c #8A561C",
"Q  c #8D591E",
"!  c #915C1E",
"~  c #97601F",
"^  c #8B5621",
"/  c #8F5921",
"(  c #935D21",
")  c #875D33",
"_  c #966023",
"`  c #9B6325",
"'  c #9F6827",
"]  c #9E6628",
"[  c #9F682C",
"{  c #8E6238",
"}  c #A16626",
"|  c #A56927",
" . c #A86A26",
".. c #A06728",
"X. c #A46B2B",
"o. c #A96D2C",
"O. c #AB702E",
"+. c #B2752F",
"@. c #A26A30",
"#. c #A96F30",
"$. c #A67134",
"%. c #AD7331",
"&. c #B27736",
"*. c #B47837",
"=. c #B97B36",
"-. c #B67A38",
";. c #B97E3B",
":. c #A37645",
">. c #BD803B",
",. c #C2833D",
"<. c #BD8444",
"1. c #BF8648",
"2. c #C18644",
"3. c #C38945",
"4. c #C08748",
"5. c #C48A49",
"6. c #C98D4A",
"7. c #CA914D",
"8. c #D2954E",
"9. c #CF9553",
"0. c #CF9854",
"q. c #D19855",
"w. c #A4A2A4",
"e. c #B2B0B3",
"r. c #EAE8E8",
"t. c white",
/* pixels */
"                  %       %     o                                       o         %       %       % ",
"  o     %   %               o                                               %                       ",
"      %   %       o                                                         o         %   o   %   % ",
"  o               o   o                                                   o     %                   ",
"            %                           . : 7 C Z A S l 1 O   X K X .               %               ",
"%     %                           X j ..o. .o.o.o. .| o. .o.o.:.0.          .                       ",
"        %                     ; { =.3.6.2.5.5.5.5.5.2.;.%.| | ` ~ E -                   %     %   % ",
"              o           ; H ,.,.=.=.2.9.;.2.4.4.4.4.3.<.&.R T R ! Q B @           o               ",
"                        < &.,.=.=.*.*.*.q.+.:.1.4.<.;.&.*.*.*.( R Q Q ! T g .             o       % ",
"%                     h  .3.=.=.O.R x <.2.=.2.<.;.&.&.&.&.*.=.=._ E Q Q ! N s .             o o     ",
"                    j | ;.3.*.| v x $.7.&.-.<.&.&.&.%.&.&.*.*.-.-.! E Q ! ! N n .                   ",
"                  h | &.6.q.*.T _ 6.3.&.-.-.%.&.&.&.&.&.&.*.*.*.-.*.E W Q ! Q M s .                 ",
"        w.e.    + o.o.4.>.<.9.9.4.*.*.;.*.&.&.&.&.&.&.*.*.&.&.&.-.-.o.E W Q ( E m w X             % ",
"                [ | <.4.>.&.&.&.*.;.<.*.&.&.&.&.&.&.*.%.` %.*.*.*.*.-.Q W W W ! N M m 9 .     .     ",
"              Z | O.2.&.<.2.2.<.1.<.&.&.*.&.&.&.&.&.*.[ &.] -.&.*.*.-.o.E W W ! E m m B 9           ",
"            X  .| <.;.<.:.3.<.<.<.*.o.%.&.&.&.&.*.&.*.o.&.@.;.&.*.*.-.-.E E W W ( m m m a @         ",
"            G | o.5.:.<.<.1.1.1.-.*.] X.-.&.&.&.&.&.&.&.$.$.*.*.*.*.-.-.` _ ( W Q E b m B 0         ",
"          . o.| &.4.3.<.1.<.<.-.&.*.o.%.-.&.&.&.&.&.&.&.-.-.*.*.*.*.%...&.*.-.%.( Q i m m a         ",
"          6 o.} -.4.<.<.<.1.<.*.*.*.%.*.&.&.&.&.&.&.&.&.&.&.*.*.*.%...%.( E W ` *.( m m c w         ",
"          ) | } <.4.1.<.<.1.*.%.%.%.*.*.&.&.&.&.&.&.&.&.&.&.*.*.&...%.i U W W W ` &.N c M &         ",
"          o.| ] <.3.3.*.1.<.%.&.*.*.&.*.&.&.&.&.&.&.&.&.*.&.-.*.%.X.E y u W Q W Q =.E p m &         ",
"  o     O O.| ] <.=.` -.1.*.&.%.*.*.&.&.&.&.&.&.&.&.-.&.&.&.&.-.| %.a u i E Q W E %.( b M 8         ",
"        > o...` <.#.X.<.>.%.&.&.&.&.&.&.&.&.&.&.&.&.&.&.&.&.&.-...%.t u u ^ Q W Q %.( i c r         ",
"        6 O...` >.1.>.1.*.&.&.&.&.&.&.&.&.*.*.&.&.&.&.&.&.&.&.-...%.a y a Q Q W W =.Q c c b     r.L ",
"        7  .} ` &.1.1.<.&.&.&.&.&.&.&.&.*.*.*.*.&.&.&.&.&.*.*.*.#.X.Q u E W W W ` %.Q p c b         ",
"        6  .&.} #.4.1.>.&.&.&.&.&.&.&.%.X.` [ *.-.&.&.&.:.-.*.*.*.' %._ E W W ( *.( W p m i         ",
"        6 8.6.+.` 1.1.*.&.&.&.&.&.&.*.#.*.*.` o.&.&.&.&.&.&.&.*.*.O...&.%.] $.*._ Q E a M n         ",
"        z ,.-.;.] *.1.*.%.*.&.*.&.&.*.#.*.*.#._ &.-.&.&.&.&.&.*.*.>.O.[ o.o.` W W Q E c M r         ",
"        J =.T 6.....<.*.&.&.&.&.*.&.*.[ *.-./ $.&.-.&.&.&.&.*.*.-.-.` W W W W W Q Q N m M f         ",
"        F =.T 6.| ` %.-.-.*.&.&.&.&.*.%.( ( X.*.*.&.&.&.&.*.*.-.-.O.E E W W ( ( Q Q m m M =         ",
"        , >.=.3.| ] ( $.-.*.*.&.&.&.*.*.;.&.-.&.&.&.&.&.*.&.*.-.*.E E E W ` %.o.( E m m M X         ",
"          J 8.=.] [ ( W &.-.*.*.*.&.&.*.&.&.&.-.&.&.&.*.*.-.=.&.Q E E W _ $.E Q ` V m m n     .     ",
"            +.o.} ..( Y W *.*.*.*.*.*.*.*.&.*.*.*.*.*.-.-.-.$.W E E Q W X.^ m Q ( b m M 3         % ",
"            D o.X.| ( E E W %.=.-.-.*.-.*.*.*.*.*.-.-.-.*.` E E E Q Q ! %.N W ( U b M N .     .     ",
"            O o.o.X.( W E E E [ *.-.-.*.-.*.-.*.-.-.&.[ W E E W W Q Q Q O.] _ ! m m m 8             ",
"o   .         Z #.o.` W W W E E W _ [ #.%.%.#.X.` Q E T E E W W W W Q Q ` ' _ m m m N X     .       ",
"      o       . @.o.} W Q W W W W E E E N E E E E E E E W / Q W W W W Q Q ^ E b m M *       .     % ",
"o               > O.| W Q Q Q W ^ W W W Q W E E W / ` X.X.X.X.] ` ^ Q Q Q E m c M e                 ",
"  %               k +.! ! Q Q Q Q W Q W W W ^ ( X.X.X.%.%.&.%.#.X.X./ Q W b m M n .           o     ",
"                    C _ ! ! Q Q W Q ^ Q W W ] X.X.&.%./ V V W %.*.X._ E m m M n X         o     %   ",
"      %               5 ~ ! ! Q ! ! W Q W ` X.o.-.E y u y u Y E %.| N d m M s .                     ",
"%                       > ( ~ ! ! ! ! W W ( o.-.` N m m N Q Q ! #.M p c M 0 .                       ",
"        o   %             . Z ~ ! ! ! Q / Q _ =.Q Q Q ! ! ! ! ( ( d m B $                         % ",
"        %                     + A ! ! ! ( Q ! o.#.Q ! ! ! ! ` E m B -                               ",
"    %     o     2 2               X 4 V Y E Y N E ! ! ! Q E m q +         .                         ",
"                                        . o * 8 0 0 9 4 # X                           t.I         o ",
"=           o                                                                         P .           ",
"%   %   %         o   o                                             .                             o ",
"      o                                                         .       o                           ",
"        %         %   %     %   o       o   o             o o         o   o %                       "
};
